<?xml version="1.0" encoding="UTF-8" standalone="no"?>
<!-- Created with Inkscape (http://www.inkscape.org/) -->

<svg
   xmlns:sketch="http://www.bohemiancoding.com/sketch/ns"
   xmlns:dc="http://purl.org/dc/elements/1.1/"
   xmlns:cc="http://creativecommons.org/ns#"
   xmlns:rdf="http://www.w3.org/1999/02/22-rdf-syntax-ns#"
   xmlns:svg="http://www.w3.org/2000/svg"
   xmlns="http://www.w3.org/2000/svg"
   xmlns:sodipodi="http://sodipodi.sourceforge.net/DTD/sodipodi-0.dtd"
   xmlns:inkscape="http://www.inkscape.org/namespaces/inkscape"
   width="64mm"
   height="64mm"
   viewBox="0 0 64 64"
   version="1.1"
   id="svg8"
   inkscape:version="0.92.4 (5da689c313, 2019-01-14)"
   sodipodi:docname="icon.svg"
   inkscape:export-filename="/home/kayo/devel/rust/pianino/src/icon.png"
   inkscape:export-xdpi="25.4"
   inkscape:export-ydpi="25.4">
  <defs
     id="defs2" />
  <sodipodi:namedview
     id="base"
     pagecolor="#ffffff"
     bordercolor="#666666"
     borderopacity="1.0"
     inkscape:pageopacity="0.0"
     inkscape:pageshadow="2"
     inkscape:zoom="1.4"
     inkscape:cx="104.41667"
     inkscape:cy="94.554834"
     inkscape:document-units="mm"
     inkscape:current-layer="layer1"
     showgrid="false"
     inkscape:window-width="1024"
     inkscape:window-height="705"
     inkscape:window-x="0"
     inkscape:window-y="31"
     inkscape:window-maximized="1" />
  <metadata
     id="metadata5">
    <rdf:RDF>
      <cc:Work
         rdf:about="">
        <dc:format>image/svg+xml</dc:format>
        <dc:type
           rdf:resource="http://purl.org/dc/dcmitype/StillImage" />
        <dc:title></dc:title>
      </cc:Work>
    </rdf:RDF>
  </metadata>
  <g
     inkscape:label="Layer 1"
     inkscape:groupmode="layer"
     id="layer1"
     transform="translate(0,-233)">
    <rect
       style="fill:#ffffff;fill-opacity:1;stroke:none;stroke-width:0.50799996;stroke-miterlimit:4;stroke-dasharray:none;stroke-opacity:1"
       id="rect853"
       width="59.342262"
       height="59.53125"
       x="2.2678571"
       y="235.2009"
       ry="5.2916665" />
    <g
       sketch:type="MSPage"
       id="Page-1"
       transform="matrix(0.94671224,0,0,0.94671224,1.7008935,234.86072)"
       style="fill:none;fill-rule:evenodd;stroke:none;stroke-width:1">
      <g
         sketch:type="MSArtboardGroup"
         id="Piano"
         style="fill:#000000">
        <path
           id="path821"
           sketch:type="MSShapeGroup"
           d="m 62,59 c 0,1.654 -1.346,3 -3,3 H 54 V 38 h 2 c 0.55,0 1,-0.45 1,-1 V 2 h 2 c 1.654,0 3,1.346 3,3 z M 2,59 V 5 C 2,3.346 3.346,2 5,2 h 6 v 35 c 0,0.55 0.45,1 1,1 h 2 V 62 H 5 C 3.346,62 2,60.654 2,59 Z M 24,2 v 35 c 0,0.55 0.45,1 1,1 h 2 V 62 H 15 V 38 h 2 c 0.55,0 1,-0.45 1,-1 V 2 Z M 40,2 V 62 H 28 V 38 h 2 c 0.55,0 1,-0.45 1,-1 V 2 Z m 11,36 h 2 V 62 H 41 V 2 h 9 v 35 c 0,0.55 0.45,1 1,1 z M 59,0 H 5 C 2.239,0 0,2.239 0,5 v 54 c 0,2.761 2.239,5 5,5 h 54 c 2.761,0 5,-2.239 5,-5 V 5 C 64,2.239 61.761,0 59,0 Z"
           inkscape:connector-curvature="0" />
      </g>
    </g>
  </g>
</svg>
